<?xml version="1.0" encoding="UTF-8" standalone="no"?>
<svg
   viewBox="0 0 54 32"
   id="svg2"
   version="1.1"
   sodipodi:docname="start.svgz"
   inkscape:version="1.1.1 (3bf5ae0d25, 2021-09-20, custom)"
   xmlns:inkscape="http://www.inkscape.org/namespaces/inkscape"
   xmlns:sodipodi="http://sodipodi.sourceforge.net/DTD/sodipodi-0.dtd"
   xmlns="http://www.w3.org/2000/svg"
   xmlns:svg="http://www.w3.org/2000/svg"
   xmlns:rdf="http://www.w3.org/1999/02/22-rdf-syntax-ns#"
   xmlns:cc="http://creativecommons.org/ns#"
   xmlns:dc="http://purl.org/dc/elements/1.1/">
  <sodipodi:namedview
     pagecolor="#ffffff"
     bordercolor="#666666"
     borderopacity="1"
     objecttolerance="10"
     gridtolerance="10"
     guidetolerance="10"
     inkscape:pageopacity="0"
     inkscape:pageshadow="2"
     inkscape:window-width="1914"
     inkscape:window-height="1047"
     id="namedview17"
     showgrid="false"
     inkscape:zoom="8"
     inkscape:cx="26.875"
     inkscape:cy="30.5625"
     inkscape:window-x="1923"
     inkscape:window-y="3"
     inkscape:window-maximized="0"
     inkscape:current-layer="start-here-kde"
     inkscape:pagecheckerboard="0" />
  <metadata
     id="metadata21">
    <rdf:RDF>
      <cc:Work
         rdf:about="">
        <dc:format>image/svg+xml</dc:format>
        <dc:type
           rdf:resource="http://purl.org/dc/dcmitype/StillImage" />
      </cc:Work>
    </rdf:RDF>
  </metadata>
  <defs
     id="defs3051">
    <style
       type="text/css"
       id="current-color-scheme">
      .ColorScheme-Text {
        color:#7B7C7E;
      }
      .ColorScheme-Background {
        color:#eff0f1;
      }
      .ColorScheme-Highlight {
        color:#0d98b9;
      }
      .ColorScheme-ViewText {
        color:#31363b;
      }
      .ColorScheme-ViewBackground {
        color:#fcfcfc;
      }
      .ColorScheme-ViewHover {
        color:#93cee9;
      }
      .ColorScheme-ViewFocus{
        color:#3daee9;
      }
      .ColorScheme-ButtonText {
        color:#31363b;
      }
      .ColorScheme-ButtonBackground {
        color:#eff0f1;
      }
      .ColorScheme-ButtonHover {
        color:#93cee9;
      }
      .ColorScheme-ButtonFocus{
        color:#3daee9;
      }
      </style>
  </defs>
  <g
     id="16-16-start-here-kde"
     transform="translate(0,13)">
    <path
       style="opacity:1;fill:none"
       d="M -16,3 -16,19 0,19 0,3 -16,3 Z"
       id="path17" />
    <path
       id="rect4153-6"
       clip-path="none"
       style="fill:currentColor"
       class="ColorScheme-Highlight"
       d="M -12.814453 18 C -13.471469 18 -14 18.528531 -14 19.185547 L -14 28.814453 C -14 29.471469 -13.471469 30 -12.814453 30 L -10.400391 30 L -10.400391 21.599609 L -6.1992188 21.599609 L -6.1992188 18 L -12.814453 18 z M -5.5996094 18 L -5.5996094 30 L -3.1855469 30 C -2.5285306 30 -2 29.471469 -2 28.814453 L -2 19.185547 C -2 18.528531 -2.5285306 18 -3.1855469 18 L -5.5996094 18 z M -9.8007812 22.199219 L -9.8007812 30 L -6.1992188 30 L -6.1992188 22.199219 L -9.8007812 22.199219 z "
       transform="translate(0,-13)" />
  </g>
  <g
     transform="translate(1,-1)"
     id="22-22-start-here-kde">
    <rect
       style="fill:none;fill-opacity:1;stroke:none"
       id="rect4150"
       width="22"
       height="22"
       x="-1"
       y="11" />
    <path
       id="rect4153-3"
       clip-path="none"
       style="fill:currentColor"
       class="ColorScheme-Highlight"
       d="M 4.1796875 13 C 3.525709 13 3 13.525709 3 14.179688 L 3 27.820312 C 3 28.474291 3.525709 29 4.1796875 29 L 7.8007812 29 L 7.8007812 17.800781 L 13.400391 17.800781 L 13.400391 13 L 4.1796875 13 z M 14.199219 13 L 14.199219 29 L 17.820312 29 C 18.474291 29 19 28.474291 19 27.820312 L 19 14.179688 C 19 13.525709 18.474291 13 17.820312 13 L 14.199219 13 z M 8.5996094 18.599609 L 8.5996094 29 L 13.400391 29 L 13.400391 18.599609 L 8.5996094 18.599609 z "
       transform="translate(-1,1)" />
  </g>
  <g
     transform="translate(-46.085716,-1)"
     id="start-here-kde">
    <rect
       style="fill:none;fill-rule:evenodd;stroke:none;stroke-width:1px;stroke-linecap:butt;stroke-linejoin:miter;stroke-opacity:1"
       id="rect3343"
       width="32"
       height="32"
       x="68.085716"
       y="1" />
    <path
       style="fill:currentColor"
       d="m 73.285716,5 c -0.6648,0 -1.2,0.5352 -1.2,1.2 v 21.6 c 0,0.6648 0.5352,1.2 1.2,1.2 h 6.085711 V 12.285714 h 8.14286 V 5 Z m 15.514281,0 v 24 h 6.08572 c 0.6648,0 1.2,-0.5352 1.2,-1.2 V 6.2 c 0,-0.6648 -0.5352,-1.2 -1.2,-1.2 z m -8.14285,8.571428 V 29 h 6.85714 V 13.571428 Z"
       id="path4"
       class="ColorScheme-Highlight" />
  </g>
</svg>
